<?xml version="1.0" ?><!DOCTYPE svg  PUBLIC '-//W3C//DTD SVG 1.1//EN'  'http://www.w3.org/Graphics/SVG/1.1/DTD/svg11.dtd'><svg enable-background="new 0 0 500 500" height="500px" id="Layer_1" version="1.1" viewBox="0 0 500 500" width="500px" xml:space="preserve" xmlns="http://www.w3.org/2000/svg" xmlns:xlink="http://www.w3.org/1999/xlink"><g><circle cx="284.543" cy="137.933" fill="#6CC7BA" r="12.379"/><path d="M227.461,321.841c33.166-30.754,110.976-13.175,110.976-13.175s-1.876,111.967-27.151,126.052   c-25.278,14.079-103.511-55.005-128.792-76.303C171.917,331.182,204.239,341.896,227.461,321.841z" fill="#6CC7BA"/><path d="M338.34,279.511   c13.567,36.122-12.24,139.007-12.24,139.007s-3.988,13.734-18.506,19.727c-14.525,5.992-27.041-0.937-27.041-0.937   s-91.857-54.73-106.711-89.92c-14.86-35.195,1.976-153.036,0.151-166.501c-1.836-13.438-16.876-76.507-45.716-92.756   c-24.637-16.728,64.708-54.848,59.563-24.579c-7.788,22.247,24.804,87.189,32.988,98.011   C229.022,172.396,324.774,243.379,338.34,279.511z" fill="none" stroke="#0B2D3F" stroke-miterlimit="10" stroke-width="16.5397"/><line fill="none" stroke="#0B2D3F" stroke-linecap="round" stroke-miterlimit="10" stroke-width="7.6842" x1="145.059" x2="170.541" y1="82.316" y2="71.806"/><polygon fill="none" points="271.085,112.531 273.35,165.924    392.932,168.46 395.222,114.243  " stroke="#0B2D3F" stroke-miterlimit="10" stroke-width="10.2456"/><path d="M284.543,139.225   c0,0-77.34-31.475-84.274-17.713c-6.938,13.762-38.329,15.818-38.329,15.818l5.128,14.946c0,0,26.285-1.319,39.659-16.362" fill="none" stroke="#0B2D3F" stroke-linecap="round" stroke-miterlimit="10" stroke-width="8.1425"/><path d="M248.765,263.214c7.447-8.836,20.643-9.96,29.483-2.52c8.833,7.44,9.961,20.642,2.515,29.477   c-7.44,8.836-20.642,9.961-29.472,2.526C242.453,285.251,241.325,272.049,248.765,263.214z" fill="#6CC7BA"/><path d="M201.683,266.972c3.284-3.897,9.112-4.398,13.013-1.114c3.903,3.289,4.398,9.115,1.114,13.019   c-3.289,3.898-9.115,4.398-13.019,1.109C198.894,276.701,198.395,270.876,201.683,266.972z" fill="#6CC7BA"/><path d="M233.502,303.659c0,6.843-5.543,12.383-12.38,12.383c-6.835,0-12.376-5.54-12.376-12.383   c0-6.833,5.541-12.378,12.376-12.378C227.959,291.281,233.502,296.826,233.502,303.659z" fill="#6CC7BA"/></g></svg>