<?xml version="1.0" ?><!DOCTYPE svg  PUBLIC '-//W3C//DTD SVG 1.1//EN'  'http://www.w3.org/Graphics/SVG/1.1/DTD/svg11.dtd'><svg enable-background="new 0 0 500 500" height="500px" id="Layer_1" version="1.1" viewBox="0 0 500 500" width="500px" xml:space="preserve" xmlns="http://www.w3.org/2000/svg" xmlns:xlink="http://www.w3.org/1999/xlink"><path d="M424.018,270.905c0,78.102-64.915,141.413-144.982,141.413c-80.077,0-144.986-63.312-144.986-141.413  c0-78.101,64.909-141.41,144.986-141.41C359.103,129.495,424.018,192.805,424.018,270.905z" fill="#6CC7BA"/><circle cx="248.623" cy="254.219" fill="none" r="151.136" stroke="#0B2D3F" stroke-miterlimit="10" stroke-width="14.7268"/><path d="M350.186,214.016  c6.591,24.146-0.396,47.083-15.612,51.235c-15.212,4.154-32.889-12.045-39.48-36.189c-6.593-24.146,0.398-47.082,15.613-51.236  C325.916,173.672,343.597,189.878,350.186,214.016z" fill="none" stroke="#0B2D3F" stroke-miterlimit="10" stroke-width="14.7268"/><path d="M313.626,300.243  c5.003,12.598,1.666,25.751-7.462,29.373c-9.127,3.629-20.581-3.649-25.581-16.247c-5.006-12.595-1.668-25.75,7.459-29.373  C297.169,280.368,308.622,287.648,313.626,300.243z" fill="none" stroke="#0B2D3F" stroke-miterlimit="10" stroke-width="14.7268"/><path d="M143.34,145.817  c9.253,3.019,16.003,12.689,16.003,24.127c0,13.867-9.941,25.108-22.213,25.108c-9.032,0-16.812-6.108-20.273-14.872" fill="none" stroke="#0B2D3F" stroke-miterlimit="10" stroke-width="14.5412"/><path d="M380.001,328.97  c-3.316,2.282-7.17,3.607-11.319,3.607c-12.271,0-22.21-11.535-22.21-25.771c0-14.235,9.938-25.771,22.21-25.771  c11.855,0,21.552,10.775,22.191,24.347" fill="none" stroke="#0B2D3F" stroke-miterlimit="10" stroke-width="14.7268"/></svg>