<?xml version="1.0" ?><!DOCTYPE svg  PUBLIC '-//W3C//DTD SVG 1.1//EN'  'http://www.w3.org/Graphics/SVG/1.1/DTD/svg11.dtd'><svg enable-background="new 0 0 500 500" height="500px" id="Layer_1" version="1.1" viewBox="0 0 500 500" width="500px" xml:space="preserve" xmlns="http://www.w3.org/2000/svg" xmlns:xlink="http://www.w3.org/1999/xlink"><g><ellipse cx="250" cy="337.779" fill="#6CC7BA" rx="166.436" ry="36.649"/><path d="M378.961,269.475l14.467,72.327H287.889   v-30.812c-19.904,15.648-45.248,25.027-72.848,25.027c-64.052,0-115.983-50.489-115.983-112.771   c0-62.287,51.931-112.776,115.983-112.776c64.053,0,115.956,50.489,115.956,112.776c0,8.388-0.926,16.548-2.721,24.416l5.613,1.562   L378.961,269.475z" fill="none" stroke="#0B2D3F" stroke-miterlimit="10" stroke-width="15.5225"/><path d="M274.406,249.799   c-10.381-0.217-18.542-12.537-18.227-27.513c0.316-14.977,8.989-26.937,19.373-26.72c10.383,0.222,18.545,12.536,18.229,27.513   C293.465,238.056,284.792,250.021,274.406,249.799z" fill="none" stroke="#0B2D3F" stroke-miterlimit="10" stroke-width="7.7613"/><line fill="none" stroke="#0B2D3F" stroke-miterlimit="10" stroke-width="7.7613" x1="328.786" x2="328.496" y1="341.802" y2="319.033"/><line fill="none" stroke="#0B2D3F" stroke-miterlimit="10" stroke-width="7.7613" x1="356.241" x2="355.951" y1="341.802" y2="319.033"/><path d="M275.383,267.109   c17.57-4.385,29.432-17.927,29.432-17.927" fill="none" stroke="#0B2D3F" stroke-linecap="round" stroke-miterlimit="10" stroke-width="7.7613"/></g></svg>