<?xml version="1.0" ?><!DOCTYPE svg  PUBLIC '-//W3C//DTD SVG 1.1//EN'  'http://www.w3.org/Graphics/SVG/1.1/DTD/svg11.dtd'><svg enable-background="new 0 0 500 500" height="500px" id="Layer_1" version="1.1" viewBox="0 0 500 500" width="500px" xml:space="preserve" xmlns="http://www.w3.org/2000/svg" xmlns:xlink="http://www.w3.org/1999/xlink"><g><g><path d="M216.636,128.695c0,0,0,85.001,0,103.34c0,18.332,53.663,17.496,53.663,0c0-17.504,0-57.513,0-69.18    c0-11.667,12.119-12.502,12.119,0c0,12.501,0-3.327,0,17.509c0,20.83,47.566,21.671,47.566,0c0-21.677,0-57.814,0-57.814    L216.636,128.695z" fill="#F37521"/><path d="M175.169,112.807c1.682-15.756,18.054-26.933,36.58-24.961c18.52,1.972,32.176,16.342,30.496,32.104    c-1.676,15.755-18.055,26.926-36.567,24.96C187.154,142.933,173.494,128.562,175.169,112.807z" fill="#F37521"/><path d="M282.558,112.807c1.679-15.756,18.054-26.933,36.577-24.961c18.519,1.972,32.176,16.342,30.494,32.104    c-1.676,15.755-18.054,26.926-36.564,24.96C294.539,142.933,280.883,128.562,282.558,112.807z" fill="#F37521"/><path d="M208.083,100.619c2.074-19.463,27.125-32.744,55.963-29.678c28.826,3.073,50.527,21.332,48.449,40.795    c-2.065,19.451-27.126,32.727-55.942,29.661C227.716,138.33,206.015,120.07,208.083,100.619z" fill="#F37521"/><path d="M325.043,112.855c2.939-9.786,19.781-13.373,37.623-8.014c17.836,5.353,29.92,17.63,26.978,27.411    c-2.927,9.774-19.776,13.361-37.606,8.008C334.194,134.9,322.109,122.629,325.043,112.855z" fill="#F37521"/><path d="M148.173,135.409c-2.032-10.01,11.12-21.126,29.379-24.834c18.247-3.708,34.695,1.403,36.725,11.413    c2.031,10.004-11.123,21.12-29.367,24.821C166.653,150.517,150.206,145.413,148.173,135.409z" fill="#F37521"/></g><rect fill="none" height="280.364" stroke="#0B2D3F" stroke-miterlimit="10" stroke-width="20.0028" width="250.619" x="144.989" y="141.874"/><path d="M144.989,227.589   c0,0-59.907-3.254-59.907,62.272c0,65.52,59.907,59.459,59.907,59.459" fill="none" stroke="#0B2D3F" stroke-miterlimit="10" stroke-width="20.0028"/><line fill="none" stroke="#0B2D3F" stroke-miterlimit="10" stroke-width="9.29" x1="187.744" x2="187.744" y1="419.764" y2="149.531"/><line fill="none" stroke="#0B2D3F" stroke-miterlimit="10" stroke-width="9.29" x1="241.639" x2="241.639" y1="419.764" y2="149.531"/><line fill="none" stroke="#0B2D3F" stroke-miterlimit="10" stroke-width="9.29" x1="344.984" x2="344.984" y1="419.764" y2="149.531"/><line fill="none" stroke="#0B2D3F" stroke-miterlimit="10" stroke-width="9.29" x1="293.314" x2="293.314" y1="419.764" y2="149.531"/></g></svg>