<?xml version="1.0" ?><!DOCTYPE svg  PUBLIC '-//W3C//DTD SVG 1.1//EN'  'http://www.w3.org/Graphics/SVG/1.1/DTD/svg11.dtd'><svg enable-background="new 0 0 500 500" height="500px" id="Layer_1" version="1.1" viewBox="0 0 500 500" width="500px" xml:space="preserve" xmlns="http://www.w3.org/2000/svg" xmlns:xlink="http://www.w3.org/1999/xlink"><g><polygon fill="#F37521" points="211.633,386.743 178.338,386.743 178.338,230.58 211.633,246.445  "/><polygon fill="#F37521" points="318.146,379.168 281.748,379.168 281.748,170.491 318.146,152.312  "/><polygon fill="#F37521" points="414.789,386.743 388.867,386.743 388.867,224.765 418.081,250.733  "/><polygon fill="none" points="217.732,387.638 217.732,149.208    275.42,74.07 308.32,117.42 319.179,154.99 319.179,387.638  " stroke="#0B2D3F" stroke-miterlimit="10" stroke-width="15.581"/><polygon fill="none" points="77.812,387.638 218.569,387.638    218.569,255.48 183.679,231.333 148.188,163.583 99.485,184.588 86.48,234.098 82.146,294.613  " stroke="#0B2D3F" stroke-miterlimit="10" stroke-width="15.581"/><polygon fill="none" points="318.146,192.635 358.42,208.279    367.998,233.02 403.76,225.625 422.188,273.144 422.188,388.066 318.146,388.066  " stroke="#0B2D3F" stroke-miterlimit="10" stroke-width="15.581"/><line fill="none" stroke="#0B2D3F" stroke-miterlimit="10" stroke-width="7.7905" x1="157.315" x2="143.786" y1="235.91" y2="166.93"/><line fill="none" stroke="#0B2D3F" stroke-miterlimit="10" stroke-width="7.7905" x1="261.336" x2="275.572" y1="151.78" y2="82.944"/><line fill="none" stroke="#0B2D3F" stroke-miterlimit="10" stroke-width="7.7905" x1="365.371" x2="365.508" y1="263.732" y2="228.587"/><line fill="none" stroke="#0B2D3F" stroke-miterlimit="10" stroke-width="7.7905" x1="422.188" x2="392.623" y1="270.939" y2="289.947"/><line fill="none" stroke="#0B2D3F" stroke-miterlimit="10" stroke-width="7.7905" x1="314.01" x2="284.445" y1="154.08" y2="173.087"/><line fill="none" stroke="#0B2D3F" stroke-miterlimit="10" stroke-width="7.7905" x1="90.442" x2="119.23" y1="233.481" y2="253.645"/></g></svg>