<?xml version="1.0" ?><!DOCTYPE svg  PUBLIC '-//W3C//DTD SVG 1.1//EN'  'http://www.w3.org/Graphics/SVG/1.1/DTD/svg11.dtd'><svg enable-background="new 0 0 500 500" height="500px" id="Layer_1" version="1.1" viewBox="0 0 500 500" width="500px" xml:space="preserve" xmlns="http://www.w3.org/2000/svg" xmlns:xlink="http://www.w3.org/1999/xlink"><g><path d="M180.351,228.517c5.654-6.709,15.459-7.743,21.906-2.317c6.441,5.431,7.083,15.269,1.431,21.977   c-5.651,6.709-15.458,7.743-21.898,2.318C175.345,245.063,174.701,235.225,180.351,228.517z" fill="#F37521"/><path d="M225.751,161.765c5.654-6.709,15.177-7.981,21.275-2.85c6.093,5.137,6.453,14.736,0.801,21.444   c-5.651,6.709-15.176,7.982-21.269,2.85C220.462,178.072,220.101,168.473,225.751,161.765z" fill="#F37521"/><path d="M283.397,158.367c7.013-8.321,19.442-9.386,27.769-2.373c8.318,7.008,9.381,19.441,2.369,27.762   c-7.011,8.321-19.442,9.381-27.761,2.374C277.452,179.117,276.389,166.688,283.397,158.367z" fill="#F37521"/><path d="M178.568,291.177c6.16-7.312,16.893-8.402,23.977-2.435c7.077,5.964,7.824,16.725,1.664,24.036   c-6.157,7.308-16.891,8.396-23.968,2.435C173.161,309.249,172.412,298.484,178.568,291.177z" fill="#F37521"/><path d="M243.399,212.569c5.654-6.709,15.656-7.577,22.345-1.947c6.686,5.633,7.523,15.644,1.871,22.352   c-5.65,6.708-15.654,7.576-22.337,1.942C238.589,229.282,237.749,219.277,243.399,212.569z" fill="#F37521"/><path d="M122.442,260.417c6.04-7.165,17.679-7.291,26.004-0.284c8.319,7.013,10.17,18.503,4.133,25.674   c-6.037,7.165-17.679,7.287-25.997,0.278C118.26,279.072,116.407,267.582,122.442,260.417z" fill="#F37521"/><path d="M98.43,206.838c7.012-8.321,19.443-9.38,27.768-2.373c8.318,7.008,9.381,19.441,2.37,27.763   c-7.011,8.321-19.441,9.381-27.76,2.378C92.484,227.594,91.42,215.161,98.43,206.838z" fill="#F37521"/><path d="M236.771,109.677c7.013-8.321,19.443-9.386,27.768-2.374c8.318,7.008,9.381,19.437,2.369,27.763   c-7.01,8.321-19.441,9.381-27.76,2.374C230.826,130.427,229.762,117.999,236.771,109.677z" fill="#F37521"/><g><line fill="none" stroke="#0B2D3F" stroke-miterlimit="10" stroke-width="15.2788" x1="133.203" x2="386.484" y1="233.593" y2="372.7"/><line fill="none" stroke="#0B2D3F" stroke-miterlimit="10" stroke-width="15.2788" x1="256.139" x2="319.84" y1="142.82" y2="412.227"/><path d="M256.883,145.964l17.559-29.862    c0,0-28.013-39.466-32.469-38.193c-4.456,1.273-12.732,47.995-12.732,47.995L256.883,145.964z" fill="none" stroke="#0B2D3F" stroke-miterlimit="10" stroke-width="15.2788"/><path d="M133.203,234.379l-10.028-35.471    c0,0-45.084-7.008-48.13-2.89c-3.048,4.117,20.758,43.218,20.758,43.218L133.203,234.379z" fill="none" stroke="#0B2D3F" stroke-miterlimit="10" stroke-width="15.2788"/><path d="M272.693,183.245l34.154,5.77    c0,0,26.908-40.226,24.129-43.938c-2.775-3.711-49.382,5.193-49.382,5.193L272.693,183.245z" fill="none" stroke="#0B2D3F" stroke-miterlimit="10" stroke-width="15.2788"/><path d="M189.958,256.218l18.856-18.168    c0,0-12.37-34.436-15.873-34.416c-3.503,0.021-19.031,32.362-19.031,32.362L189.958,256.218z" fill="none" stroke="#0B2D3F" stroke-miterlimit="10" stroke-width="15.2788"/><path d="M256.149,173.321l-18.696-19.402    c0,0-35.933,10.614-35.946,14.067s33.448,20.217,33.448,20.217L256.149,173.321z" fill="none" stroke="#0B2D3F" stroke-miterlimit="10" stroke-width="15.2788"/><path d="M164.469,262.771l-32.338-5.522    c0,0-27.432,36.47-24.944,39.871c2.488,3.403,47.349-4.355,47.349-4.355L164.469,262.771z" fill="none" stroke="#0B2D3F" stroke-miterlimit="10" stroke-width="15.2788"/><path d="M272.545,224.759l-16.652-20.212    c0,0-35.295,9.66-35.546,13.159c-0.25,3.494,30.786,21.484,30.786,21.484L272.545,224.759z" fill="none" stroke="#0B2D3F" stroke-miterlimit="10" stroke-width="15.2788"/><path d="M209.663,282.719l-26.132,1.739    c0,0-12.734,34.305-10.039,36.545c2.692,2.241,35.406-12.479,35.406-12.479L209.663,282.719z" fill="none" stroke="#0B2D3F" stroke-miterlimit="10" stroke-width="15.2788"/></g></g></svg>