<?xml version="1.0" ?><!DOCTYPE svg  PUBLIC '-//W3C//DTD SVG 1.1//EN'  'http://www.w3.org/Graphics/SVG/1.1/DTD/svg11.dtd'><svg enable-background="new 0 0 500 500" height="500px" id="Layer_1" version="1.1" viewBox="0 0 500 500" width="500px" xml:space="preserve" xmlns="http://www.w3.org/2000/svg" xmlns:xlink="http://www.w3.org/1999/xlink"><g><path d="M175.599,141.775c0,0,0,90.491,0,123.301c0,32.81,50.802,31.222,50.802,0c0-31.223,0-76.733,0-91.021   s14.288-13.759,14.288,0s0,78.32,0,127.535s68.793,49.215,68.793,0s0-139.326,0-146.396c0-7.07,5.929-5.63,5.929,0   c0,5.631,0,26.27,0,42.145c0,15.876,22.118,16.405,22.118,0c0-16.404,0-57.681,0-57.681c0.729,0,6.182,0.632,6.182,0.632   s-2.816,14.016,10.584,14.016c13.398,0,10.318-14.553,10.318-14.553L175.599,141.775z" fill="#6CC7BA"/><path d="M153.286,433.056   c5.11,4.196,28.336-25.271,28.336-25.271l-27.319-6.716C154.303,401.068,151.417,427.949,153.286,433.056z" fill="none" stroke="#0B2D3F" stroke-miterlimit="10" stroke-width="8.467"/><path d="M340.531,435.81   c-5.109,4.192-28.336-25.277-28.336-25.277l27.319-6.714C339.515,403.818,342.399,430.699,340.531,435.81z" fill="none" stroke="#0B2D3F" stroke-miterlimit="10" stroke-width="8.467"/><circle cx="203.575" cy="67.117" fill="#6CC7BA" r="18.513"/><path d="M282.768,63.773c0,5.651-4.581,10.232-10.229,10.232c-5.652,0-10.232-4.581-10.232-10.232   c0-5.648,4.58-10.229,10.232-10.229C278.187,53.544,282.768,58.125,282.768,63.773z" fill="#6CC7BA"/><path d="M259.33,85.631c0,5.651-4.582,10.232-10.232,10.232c-5.647,0-10.228-4.581-10.228-10.232   c0-5.647,4.581-10.228,10.228-10.228C254.748,75.403,259.33,79.983,259.33,85.631z" fill="#6CC7BA"/><path d="M132.552,164.732l13.226,0.624   c-8.186,4.358-23.008,14.528-23.008,14.528c-33.723,25.128-54.68,60.282-54.68,99.208c0,57.615,45.912,106.999,111.2,127.798   l0.07,0.017c3.174,1.014,6.404,1.952,9.683,2.821c2.293,0.614,6.949,1.743,6.949,1.743l52.386,0.616l47.952,0.373   c76.29-16.108,132.331-69.718,132.331-133.368c0-38.202-20.18-72.769-52.807-97.794c-7.641-5.862-24.877-15.941-24.877-15.941   h11.373c19.613-4.336,31.322-3.167,31.322-15.831c0-12.663-6.859-13.49-21.904-13.49L248.871,135.8   c0,0-100.963,0.095-122.396,0.095c-21.437,0-22.412,4.068-22.412,13.63c0,9.567,11.708,11.494,31.321,15.831" fill="none" stroke="#0B2D3F" stroke-miterlimit="10" stroke-width="12.7005"/><line fill="none" stroke="#0B2D3F" stroke-linecap="round" stroke-miterlimit="10" stroke-width="6.3503" x1="183.784" x2="313.977" y1="160.879" y2="160.879"/></g></svg>