<?xml version="1.0" ?><!DOCTYPE svg  PUBLIC '-//W3C//DTD SVG 1.1//EN'  'http://www.w3.org/Graphics/SVG/1.1/DTD/svg11.dtd'><svg enable-background="new 0 0 500 500" height="500px" id="Layer_1" version="1.1" viewBox="0 0 500 500" width="500px" xml:space="preserve" xmlns="http://www.w3.org/2000/svg" xmlns:xlink="http://www.w3.org/1999/xlink"><g><rect fill="#6CC7BA" height="19.007" width="384.954" x="54.913" y="344.65"/><rect fill="#6CC7BA" height="19.025" width="330.736" x="121.027" y="271.372"/><rect fill="#6CC7BA" height="16.568" width="277.291" x="84.823" y="194.734"/><path d="M113.466,172.427c0,22.479-5.974,40.706-13.34,40.706c-7.373,0-13.347-18.227-13.347-40.706   s5.974-40.706,13.347-40.706C107.492,131.722,113.466,149.948,113.466,172.427z" fill="#6CC7BA"/><path d="M164.331,256.097c0,22.893-9.689,41.458-21.647,41.458c-11.967,0-21.656-18.565-21.656-41.458   c0-22.897,9.689-41.458,21.656-41.458C154.641,214.638,164.331,233.199,164.331,256.097z" fill="#6CC7BA"/><path d="M92.382,329.816c0,19.216-8.389,34.794-18.729,34.794c-10.352,0-18.74-15.578-18.74-34.794   c0-19.217,8.388-34.794,18.74-34.794C83.993,295.022,92.382,310.6,92.382,329.816z" fill="#6CC7BA"/><rect fill="none" height="64.824" stroke="#0B2D3F" stroke-miterlimit="10" stroke-width="16.0708" width="384.954" x="54.913" y="297.555"/><rect fill="none" height="79.901" stroke="#0B2D3F" stroke-miterlimit="10" stroke-width="16.0708" width="330.736" x="121.027" y="214.638"/><rect fill="none" height="81.411" stroke="#0B2D3F" stroke-miterlimit="10" stroke-width="14.2025" width="277.291" x="84.823" y="131.722"/></g></svg>