<?xml version="1.0" ?><!DOCTYPE svg  PUBLIC '-//W3C//DTD SVG 1.1//EN'  'http://www.w3.org/Graphics/SVG/1.1/DTD/svg11.dtd'><svg enable-background="new 0 0 500 500" height="500px" id="Layer_1" version="1.1" viewBox="0 0 500 500" width="500px" xml:space="preserve" xmlns="http://www.w3.org/2000/svg" xmlns:xlink="http://www.w3.org/1999/xlink"><g><path d="M317.915,183.967c0,8.577-4.157,15.528-9.284,15.528c-5.132,0-9.289-6.952-9.289-15.528   c0-8.572,4.157-15.523,9.289-15.523C313.758,168.444,317.915,175.396,317.915,183.967z" fill="#F37521"/><ellipse cx="215.473" cy="105.894" fill="#F37521" rx="12.969" ry="11.259"/><path d="M348.329,224.191c0,2.791-1.524,52.661-1.524,70.484c0,17.822-30.035,17.302-30.035,0   c0-17.299,0-31.048,0-41.736c0-10.688-11.58-10.18-11.58,0s0,51.411,0,66.686c0,15.27-21.759,16.286-21.759,0   c0-16.29,0-61.179,0-70.801c0-9.625-9.926-10.229-9.926,0c0,10.226,0,60.616,0,89.124c0,28.506-49.887,30.03-49.887,0   c0-30.032,0-133.767,0-143.493c0-9.726-12.725-9.109-12.725,0s0,93.097,0,114.477c0,21.381-38.512,22.909-38.512,0   c0-22.904-0.002-143.034-0.002-143.034c0.002,0,87.951,0,87.951,0v58.292C260.33,224.191,348.329,221.4,348.329,224.191z" fill="#F37521"/><polygon fill="none" points="260.33,427.524 170.615,427.524    170.615,161.825 215.471,161.825 260.33,161.825  " stroke="#0B2D3F" stroke-miterlimit="10" stroke-width="12.7956"/><rect fill="none" height="203.854" stroke="#0B2D3F" stroke-miterlimit="10" stroke-width="12.7956" width="89.715" x="260.33" y="223.671"/><path d="M215.471,161.825v-40.216l25.2-15.523   c0,0-23.675-53.986-25.2-52.569c-1.521,1.412-25.191,52.569-25.191,52.569l24.434,14.508" fill="none" stroke="#0B2D3F" stroke-miterlimit="10" stroke-width="8.5304"/><path d="M308.626,224.191v-21.889l25.2-15.523   c0,0-23.68-53.99-25.2-52.574c-1.524,1.417-25.195,52.574-25.195,52.574l24.434,14.507" fill="none" stroke="#0B2D3F" stroke-miterlimit="10" stroke-width="8.5304"/></g></svg>