<?xml version="1.0" ?><!DOCTYPE svg  PUBLIC '-//W3C//DTD SVG 1.1//EN'  'http://www.w3.org/Graphics/SVG/1.1/DTD/svg11.dtd'><svg enable-background="new 0 0 500 500" height="500px" id="Layer_1" version="1.1" viewBox="0 0 500 500" width="500px" xml:space="preserve" xmlns="http://www.w3.org/2000/svg" xmlns:xlink="http://www.w3.org/1999/xlink"><g><g><path d="M130.018,140.054c12-14.236,33.264-16.053,47.509-4.059c14.233,11.991,16.047,33.264,4.05,47.5    c-11.991,14.237-33.261,16.048-47.488,4.065C119.846,175.56,118.032,154.29,130.018,140.054z" fill="#F37521"/><path d="M246.191,103.682c8.502-10.09,23.572-11.377,33.668-2.878c10.086,8.496,11.371,23.575,2.869,33.668    c-8.496,10.086-23.572,11.369-33.656,2.875C238.98,128.845,237.695,113.771,246.191,103.682z" fill="#F37521"/><path d="M197.746,198.554c12.471-14.798,34.575-16.685,49.381-4.216c14.791,12.459,16.68,34.572,4.211,49.37    c-12.462,14.794-34.575,16.679-49.367,4.225C187.171,235.458,185.287,213.351,197.746,198.554z" fill="#F37521"/><path d="M368.792,216.392c8.502-10.089,23.575-11.378,33.671-2.875c10.084,8.493,11.369,23.572,2.873,33.662    c-8.502,10.087-23.576,11.373-33.659,2.879C361.581,241.555,360.296,226.479,368.792,216.392z" fill="#F37521"/><path d="M310.96,143.206c12.472-14.798,34.576-16.685,49.382-4.216c14.789,12.459,16.674,34.572,4.205,49.373    c-12.463,14.792-34.572,16.675-49.362,4.222C300.385,180.11,298.5,158.003,310.96,143.206z" fill="#F37521"/></g><polygon fill="none" points="211.011,394.209 263.3,394.209    263.978,402.315 308.148,402.315 308.148,250.296 211.351,250.296  " stroke="#0B2D3F" stroke-miterlimit="10" stroke-width="17.8648"/><path d="M407.168,247.594   c0,0,41.085-148.414-147.418-148.414S109.423,249.24,109.423,249.24L407.168,247.594z" fill="none" stroke="#0B2D3F" stroke-miterlimit="10" stroke-width="17.8648"/><line fill="none" stroke="#0B2D3F" stroke-miterlimit="10" stroke-width="8.9324" x1="267.688" x2="267.688" y1="355.057" y2="394.02"/></g></svg>