<?xml version="1.0" ?><!DOCTYPE svg  PUBLIC '-//W3C//DTD SVG 1.1//EN'  'http://www.w3.org/Graphics/SVG/1.1/DTD/svg11.dtd'><svg enable-background="new 0 0 500 500" height="500px" id="Layer_1" version="1.1" viewBox="0 0 500 500" width="500px" xml:space="preserve" xmlns="http://www.w3.org/2000/svg" xmlns:xlink="http://www.w3.org/1999/xlink"><g><ellipse cx="250" cy="319.635" fill="#6CC7BA" rx="223.35" ry="49.181"/><path d="M218.036,256.554   c0,34.544-29.994,62.525-67.003,62.525s-67.004-27.981-67.004-62.525c0-34.51,29.995-62.491,67.004-62.491   S218.036,222.043,218.036,256.554z" fill="none" stroke="#0B2D3F" stroke-miterlimit="10" stroke-width="20.8304"/><path d="M416.378,262.803   c0,34.51-30.032,62.491-67.041,62.491c-36.974,0-67.003-27.981-67.003-62.491c0-34.545,30.029-62.525,67.003-62.525   C386.346,200.277,416.378,228.258,416.378,262.803z" fill="none" stroke="#0B2D3F" stroke-miterlimit="10" stroke-width="20.8304"/><line fill="none" stroke="#0B2D3F" stroke-miterlimit="10" stroke-width="20.8304" x1="282.348" x2="218.033" y1="262.785" y2="263.504"/><line fill="none" stroke="#0B2D3F" stroke-miterlimit="10" stroke-width="14.3789" x1="84.019" x2="84.019" y1="160.329" y2="246.915"/><polyline fill="none" points="359.162,165.468 391.566,138.023    416.364,162.919 416.364,249.505  " stroke="#0B2D3F" stroke-miterlimit="10" stroke-width="14.3789"/><polyline fill="none" points="81.73,165.499 120.797,131.185    148.737,165.499  " stroke="#0B2D3F" stroke-miterlimit="10" stroke-width="14.3789"/></g></svg>