<?xml version="1.0" ?><!DOCTYPE svg  PUBLIC '-//W3C//DTD SVG 1.1//EN'  'http://www.w3.org/Graphics/SVG/1.1/DTD/svg11.dtd'><svg enable-background="new 0 0 500 500" height="500px" id="Layer_1" version="1.1" viewBox="0 0 500 500" width="500px" xml:space="preserve" xmlns="http://www.w3.org/2000/svg" xmlns:xlink="http://www.w3.org/1999/xlink"><g><polygon fill="#F37521" points="336.549,322.878 331.905,323.538 336.361,322.388  "/><path d="M431.17,322.599c-0.045,9.685-14.025,19.278-14.025,19.278s-26.413,11.778-46.676,17.898   c-20.268,6.121-59.674,7.742-59.674,7.742l-38.256-35.633l0,0l-3.051,0.426L249.926,88.624l86.436,233.764l3.472-0.87   l-8.539-23.172l-5.768-20.456c0,0,73.44,10.977,87.983,23.223C428.051,313.358,431.219,312.909,431.17,322.599z" fill="#F37521"/><polygon fill="#F37521" points="331.905,323.538 272.539,331.885 269.795,329.328  "/><polygon fill="#F37521" points="336.549,322.878 331.905,323.538 336.361,322.388  "/><path d="M168.231,320.496l83.305-238.648   l88.297,239.674C339.833,321.521,247.818,350.191,168.231,320.496z" fill="none" stroke="#0B2D3F" stroke-miterlimit="10" stroke-width="14.0737"/><path d="M323.524,277.217   c63.271,7.518,107.637,25.014,107.637,45.391c0,27.213-79.206,49.29-176.905,49.29c-97.699,0-176.887-22.077-176.887-49.29   c0-20.185,43.545-37.548,105.903-45.162" fill="none" stroke="#0B2D3F" stroke-miterlimit="10" stroke-width="14.0737"/></g></svg>